<?xml version="1.0" encoding="utf-8"?>
<!-- Generator: Adobe Illustrator 18.0.0, SVG Export Plug-In . SVG Version: 6.00 Build 0)  -->
<!DOCTYPE svg PUBLIC "-//W3C//DTD SVG 1.1//EN" "http://www.w3.org/Graphics/SVG/1.1/DTD/svg11.dtd">
<svg version="1.1" id="black" xmlns:svg="http://www.w3.org/2000/svg"
	 xmlns="http://www.w3.org/2000/svg" xmlns:xlink="http://www.w3.org/1999/xlink" x="0px" y="0px" viewBox="-13 156.6 246.9 246.8"
	 enable-background="new -13 156.6 246.9 246.8" xml:space="preserve">
<svg:style  type="text/css" xmlns:svg="http://www.w3.org/2000/svg"></svg:style>
<g>
	<polygon fill="#0DBCE3" points="165.7,249.3 165.7,248.9 220.9,218 110.5,156.6 55.2,187.1 	"/>
	<polygon fill="#027DB3" points="110.5,403.4 110.5,341.6 0,279.8 0,341.6 	"/>
	<polygon fill="#01303F" points="165.7,310.7 110.5,341.6 110.5,341.6 110.5,341.6 110.5,403.4 165.7,372.5 165.6,372.5
		165.7,372.5 	"/>
	<polygon fill="#045F83" points="110.5,279.8 110.5,341.6 165.7,310.7 165.7,248.9 	"/>
	<polygon fill="#045F83" points="220.9,279.8 165.7,310.7 165.7,310.7 165.7,310.7 165.7,372.5 220.9,341.6 220.9,341.6
		220.9,341.6 	"/>
	<polygon fill="#64C8DF" points="165.7,310.7 220.9,279.8 220.9,279.8 220.9,218 165.7,248.9 	"/>
	<polyline fill="#1099D6" points="165.7,248.9 55.2,187.1 0,218 0.9,218.5 0.9,218.5 110.5,279.8 	"/>
	<polygon fill="#64C8DF" points="110.5,341.6 110.5,279.8 0,218 0,279.8 	"/>
</g>
</svg>
